<svg width="26" height="26" viewBox="0 0 26 26" fill="none" xmlns="http://www.w3.org/2000/svg">
<g clip-path="url(#clip0_139_459)">
<path d="M18.06 13.6425L18.0578 13.6623L18.0567 13.6822C17.7167 19.8007 15.4284 23.0936 12.6388 24.4798C10.406 23.3354 7.22221 19.5911 7.22221 13.7222V13.7078L7.22163 13.6933C7.04342 9.23788 7.73281 6.62947 8.75645 5.15063C9.74333 3.7249 11.1133 3.24999 12.6389 3.24999C14.2485 3.24999 15.7759 3.59387 16.819 4.91606C17.8875 6.2705 18.5947 8.83017 18.06 13.6425Z" stroke="white" stroke-width="1.44444"/>
<path d="M7.22223 9.3889L4.33334 12.2778C4.33334 12.2778 2.52777 13.7222 1.44445 15.1667C0.361128 16.6111 0.464429 18.6033 1.80556 19.8611C2.85453 20.845 4.02258 20.9366 5.41667 20.5833C6.59262 20.2854 7.94445 18.7778 7.94445 18.7778" stroke="white" stroke-width="1.44444"/>
<path d="M18.0555 9.3889L20.9444 12.2778C20.9444 12.2778 22.75 13.7222 23.8333 15.1667C24.9166 16.6111 24.8133 18.6033 23.4722 19.8611C22.4232 20.845 21.2552 20.9366 19.8611 20.5833C18.6851 20.2854 17.3333 18.7778 17.3333 18.7778" stroke="white" stroke-width="1.44444"/>
<path d="M14.4445 3.25001L16.6111 0.722229" stroke="white" stroke-width="1.44444"/>
<path d="M10.8333 3.61112L8.66668 0.722229" stroke="white" stroke-width="1.44444"/>
<rect x="7.2222" y="10.1111" width="10.8333" height="8.66667" fill="white"/>
<rect x="8.66666" y="11.5556" width="8.66667" height="2.16667" fill="#FFBC2B"/>
<path d="M8.66666 15.1667H17.3333L16.9722 17.3333H9.02777L8.66666 15.1667Z" fill="#FFBC2B"/>
</g>
<defs>
<clipPath id="clip0_139_459">
<rect width="26" height="26" fill="white"/>
</clipPath>
</defs>
</svg>
